<svg width="128" height="128" viewBox="0 0 128 128" fill="none" xmlns="http://www.w3.org/2000/svg">
<mask id="path-1-inside-1_11_17" fill="white">
<path d="M19 108C19 96.9543 27.9543 88 39 88V108H19Z"/>
</mask>
<path d="M19 108C19 96.9543 27.9543 88 39 88V108H19Z" fill="#F59307"/>
<path d="M18 108C18 96.402 27.402 87 39 87V89C28.5066 89 20 97.5066 20 108H18ZM39 108H19H39ZM18 108C18 96.402 27.402 87 39 87V89C28.5066 89 20 97.5066 20 108H18ZM39 88V108V88Z" fill="#405508" mask="url(#path-1-inside-1_11_17)"/>
<mask id="path-3-inside-2_11_17" fill="white">
<path d="M109 20C109 31.0457 100.046 40 89 40V20H109Z"/>
</mask>
<path d="M109 20C109 31.0457 100.046 40 89 40V20H109Z" fill="#56FD06"/>
<path d="M110 20C110 31.598 100.598 41 89 41V39C99.4934 39 108 30.4934 108 20H110ZM89 20H109H89ZM110 20C110 31.598 100.598 41 89 41V39C99.4934 39 108 30.4934 108 20H110ZM89 40V20V40Z" fill="#01A0E2" mask="url(#path-3-inside-2_11_17)"/>
<mask id="path-5-inside-3_11_17" fill="white">
<path d="M108 109C96.9543 109 88 100.046 88 89H108V109Z"/>
</mask>
<path d="M108 109C96.9543 109 88 100.046 88 89H108V109Z" fill="#DE1F41"/>
<path d="M108 110C96.402 110 87 100.598 87 89H89C89 99.4934 97.5066 108 108 108V110ZM108 89V109V89ZM108 110C96.402 110 87 100.598 87 89H89C89 99.4934 97.5066 108 108 108V110ZM88 89H108H88Z" fill="#A0A0A0" mask="url(#path-5-inside-3_11_17)"/>
<mask id="path-7-inside-4_11_17" fill="white">
<path d="M20 19C31.0457 19 40 27.9543 40 39H20V19Z"/>
</mask>
<path d="M20 19C31.0457 19 40 27.9543 40 39H20V19Z" fill="#0265CD"/>
<path d="M20 18C31.598 18 41 27.402 41 39H39C39 28.5066 30.4934 20 20 20V18ZM20 39V19V39ZM20 18C31.598 18 41 27.402 41 39H39C39 28.5066 30.4934 20 20 20V18ZM40 39H20H40Z" fill="#F70089" mask="url(#path-7-inside-4_11_17)"/>
<rect x="39" y="69" width="10" height="39" fill="#405508"/>
<mask id="path-10-inside-5_11_17" fill="white">
<path d="M49 69H59V108H49V69Z"/>
</mask>
<path d="M49 69H59V108H49V69Z" fill="#F59307"/>
<path d="M58 69V108H60V69H58Z" fill="#405508" mask="url(#path-10-inside-5_11_17)"/>
<mask id="path-12-inside-6_11_17" fill="white">
<path d="M39 89V79H89V89H39Z"/>
</mask>
<path d="M39 89V79H89V89H39Z" fill="#A0A0A0"/>
<path d="M89 88H39V90H89V88Z" fill="#DE1F41" mask="url(#path-12-inside-6_11_17)"/>
<mask id="path-14-inside-7_11_17" fill="white">
<path d="M39 79V69H108V79H39Z"/>
</mask>
<path d="M39 79V69H108V79H39Z" fill="#DE1F41"/>
<path d="M39 70H108V68H39V70Z" fill="#A0A0A0" mask="url(#path-14-inside-7_11_17)"/>
<mask id="path-16-inside-8_11_17" fill="white">
<path d="M89 89H79V39H89V89Z"/>
</mask>
<path d="M89 89H79V39H89V89Z" fill="#01A0E2"/>
<path d="M88 39V89H90V39H88Z" fill="#56FD06" mask="url(#path-16-inside-8_11_17)"/>
<mask id="path-18-inside-9_11_17" fill="white">
<path d="M79 89H69V20H79V89Z"/>
</mask>
<path d="M79 89H69V20H79V89Z" fill="#56FD06"/>
<path d="M70 89V20H68V89H70Z" fill="#01A0E2" mask="url(#path-18-inside-9_11_17)"/>
<mask id="path-20-inside-10_11_17" fill="white">
<path d="M89 39V49H39V39H89Z"/>
</mask>
<path d="M89 39V49H39V39H89Z" fill="#F70089"/>
<path d="M39 40H89V38H39V40Z" fill="#0265CD" mask="url(#path-20-inside-10_11_17)"/>
<mask id="path-22-inside-11_11_17" fill="white">
<path d="M89 49V59H20V49L89 49Z"/>
</mask>
<path d="M89 49V59H20V49L89 49Z" fill="#0265CD"/>
<path d="M89 58H20V60H89V58Z" fill="#F70089" mask="url(#path-22-inside-11_11_17)"/>
<mask id="path-24-inside-12_11_17" fill="white">
<path d="M39 39H49V69H39V39Z"/>
</mask>
<path d="M39 39H49V69H39V39Z" fill="#405508"/>
<path d="M40 69V39H38V69H40Z" fill="#F59307" mask="url(#path-24-inside-12_11_17)"/>
<mask id="path-26-inside-13_11_17" fill="white">
<path d="M49 39H59V69H49V39Z"/>
</mask>
<path d="M49 39H59V69H49V39Z" fill="#F59307"/>
<path d="M58 39V69H60V39H58Z" fill="#405508" mask="url(#path-26-inside-13_11_17)"/>
<mask id="path-28-inside-14_11_17" fill="white">
<path d="M20 59C8.95431 59 0 50.0457 0 39H20V59Z"/>
</mask>
<path d="M20 59C8.95431 59 0 50.0457 0 39H20V59Z" fill="#0265CD"/>
<path d="M20 60C8.40202 60 -1 50.598 -1 39H1C1 49.4934 9.50659 58 20 58V60ZM20 39V59V39ZM20 60C8.40202 60 -1 50.598 -1 39H1C1 49.4934 9.50659 58 20 58V60ZM0 39H20H0Z" fill="#F70089" mask="url(#path-28-inside-14_11_17)"/>
<path d="M20 49C14.4772 49 10 44.5228 10 39H20V49Z" fill="#F70089"/>
<path d="M20 49V39H39V49H20Z" fill="#F70089"/>
<mask id="path-32-inside-15_11_17" fill="white">
<path d="M0 39C0 27.9543 8.95431 19 20 19V39H0Z"/>
</mask>
<path d="M0 39C0 27.9543 8.95431 19 20 19V39H0Z" fill="#0265CD"/>
<path d="M-1 39C-1 27.402 8.40202 18 20 18V20C9.50659 20 1 28.5066 1 39H-1ZM20 39H0H20ZM-1 39C-1 27.402 8.40202 18 20 18V20C9.50659 20 1 28.5066 1 39H-1ZM20 19V39V19Z" fill="#F70089" mask="url(#path-32-inside-15_11_17)"/>
<path d="M10 39C10 33.4772 14.4772 29 20 29V39H10Z" fill="#F70089"/>
<path d="M20 29C25.5228 29 30 33.4772 30 39H20V29Z" fill="#F70089"/>
<mask id="path-36-inside-16_11_17" fill="white">
<path d="M89 39C100.046 39 109 47.9543 109 59H89V39Z"/>
</mask>
<path d="M89 39C100.046 39 109 47.9543 109 59H89V39Z" fill="#F70089"/>
<path d="M89 38C100.598 38 110 47.402 110 59H108C108 48.5066 99.4934 40 89 40V38ZM89 59V39V59ZM89 38C100.598 38 110 47.402 110 59H108C108 48.5066 99.4934 40 89 40V38ZM109 59H89H109Z" fill="#0265CD" mask="url(#path-36-inside-16_11_17)"/>
<path d="M89 49C94.5228 49 99 53.4772 99 59H89V49Z" fill="#0265CD"/>
<mask id="path-39-inside-17_11_17" fill="white">
<path d="M109 59C109 70.0457 100.046 79 89 79V59H109Z"/>
</mask>
<path d="M109 59C109 70.0457 100.046 79 89 79V59H109Z" fill="#F70089"/>
<path d="M110 59C110 70.598 100.598 80 89 80V78C99.4934 78 108 69.4934 108 59H110ZM89 59H109H89ZM110 59C110 70.598 100.598 80 89 80V78C99.4934 78 108 69.4934 108 59H110ZM89 79V59V79Z" fill="#0265CD" mask="url(#path-39-inside-17_11_17)"/>
<path d="M99 59C99 64.5228 94.5228 69 89 69V59H99Z" fill="#0265CD"/>
<mask id="path-42-inside-18_11_17" fill="white">
<path d="M69 20C69 8.95431 77.9543 0 89 0V20H69Z"/>
</mask>
<path d="M69 20C69 8.95431 77.9543 0 89 0V20H69Z" fill="#56FD06"/>
<path d="M68 20C68 8.40202 77.402 -1 89 -1V1C78.5066 1 70 9.50659 70 20H68ZM89 20H69H89ZM68 20C68 8.40202 77.402 -1 89 -1V1C78.5066 1 70 9.50659 70 20H68ZM89 0V20V0Z" fill="#01A0E2" mask="url(#path-42-inside-18_11_17)"/>
<path d="M79 20C79 14.4772 83.4772 10 89 10V20H79Z" fill="#01A0E2"/>
<path d="M79 20H89V39H79V20Z" fill="#01A0E2"/>
<mask id="path-46-inside-19_11_17" fill="white">
<path d="M89 0C100.046 0 109 8.95431 109 20H89V0Z"/>
</mask>
<path d="M89 0C100.046 0 109 8.95431 109 20H89V0Z" fill="#56FD06"/>
<path d="M89 -1C100.598 -1 110 8.40202 110 20H108C108 9.50659 99.4934 1 89 1V-1ZM89 20V0V20ZM89 -1C100.598 -1 110 8.40202 110 20H108C108 9.50659 99.4934 1 89 1V-1ZM109 20H89H109Z" fill="#01A0E2" mask="url(#path-46-inside-19_11_17)"/>
<path d="M89 10C94.5228 10 99 14.4772 99 20H89V10Z" fill="#01A0E2"/>
<path d="M99 20C99 25.5228 94.5228 30 89 30V20H99Z" fill="#01A0E2"/>
<mask id="path-50-inside-20_11_17" fill="white">
<path d="M89 89C89 100.046 80.0457 109 69 109V89H89Z"/>
</mask>
<path d="M89 89C89 100.046 80.0457 109 69 109V89H89Z" fill="#01A0E2"/>
<path d="M90 89C90 100.598 80.598 110 69 110V108C79.4934 108 88 99.4934 88 89H90ZM69 89H89H69ZM90 89C90 100.598 80.598 110 69 110V108C79.4934 108 88 99.4934 88 89H90ZM69 109V89V109Z" fill="#56FD06" mask="url(#path-50-inside-20_11_17)"/>
<path d="M79 89C79 94.5228 74.5228 99 69 99V89H79Z" fill="#56FD06"/>
<mask id="path-53-inside-21_11_17" fill="white">
<path d="M69 109C57.9543 109 49 100.046 49 89H69V109Z"/>
</mask>
<path d="M69 109C57.9543 109 49 100.046 49 89H69V109Z" fill="#01A0E2"/>
<path d="M69 110C57.402 110 48 100.598 48 89H50C50 99.4934 58.5066 108 69 108V110ZM69 89V109V89ZM69 110C57.402 110 48 100.598 48 89H50C50 99.4934 58.5066 108 69 108V110ZM49 89H69H49Z" fill="#56FD06" mask="url(#path-53-inside-21_11_17)"/>
<path d="M69 99C63.4772 99 59 94.5228 59 89H69V99Z" fill="#56FD06"/>
<mask id="path-56-inside-22_11_17" fill="white">
<path d="M108 69C119.046 69 128 77.9543 128 89H108V69Z"/>
</mask>
<path d="M108 69C119.046 69 128 77.9543 128 89H108V69Z" fill="#DE1F41"/>
<path d="M108 68C119.598 68 129 77.402 129 89H127C127 78.5066 118.493 70 108 70V68ZM108 89V69V89ZM108 68C119.598 68 129 77.402 129 89H127C127 78.5066 118.493 70 108 70V68ZM128 89H108H128Z" fill="#A0A0A0" mask="url(#path-56-inside-22_11_17)"/>
<path d="M108 79C113.523 79 118 83.4772 118 89H108V79Z" fill="#A0A0A0"/>
<path d="M108 79V89H89V79H108Z" fill="#A0A0A0"/>
<mask id="path-60-inside-23_11_17" fill="white">
<path d="M128 89C128 100.046 119.046 109 108 109V89H128Z"/>
</mask>
<path d="M128 89C128 100.046 119.046 109 108 109V89H128Z" fill="#DE1F41"/>
<path d="M129 89C129 100.598 119.598 110 108 110V108C118.493 108 127 99.4934 127 89H129ZM108 89H128H108ZM129 89C129 100.598 119.598 110 108 110V108C118.493 108 127 99.4934 127 89H129ZM108 109V89V109Z" fill="#A0A0A0" mask="url(#path-60-inside-23_11_17)"/>
<path d="M118 89C118 94.5228 113.523 99 108 99V89H118Z" fill="#A0A0A0"/>
<path d="M108 99C102.477 99 98 94.5228 98 89H108V99Z" fill="#A0A0A0"/>
<mask id="path-64-inside-24_11_17" fill="white">
<path d="M39 89C27.9543 89 19 80.0457 19 69H39V89Z"/>
</mask>
<path d="M39 89C27.9543 89 19 80.0457 19 69H39V89Z" fill="#A0A0A0"/>
<path d="M39 90C27.402 90 18 80.598 18 69H20C20 79.4934 28.5066 88 39 88V90ZM39 69V89V69ZM39 90C27.402 90 18 80.598 18 69H20C20 79.4934 28.5066 88 39 88V90ZM19 69H39H19Z" fill="#DE1F41" mask="url(#path-64-inside-24_11_17)"/>
<path d="M39 79C33.4772 79 29 74.5228 29 69H39V79Z" fill="#DE1F41"/>
<mask id="path-67-inside-25_11_17" fill="white">
<path d="M19 69C19 57.9543 27.9543 49 39 49V69H19Z"/>
</mask>
<path d="M19 69C19 57.9543 27.9543 49 39 49V69H19Z" fill="#A0A0A0"/>
<path d="M18 69C18 57.402 27.402 48 39 48V50C28.5066 50 20 58.5066 20 69H18ZM39 69H19H39ZM18 69C18 57.402 27.402 48 39 48V50C28.5066 50 20 58.5066 20 69H18ZM39 49V69V49Z" fill="#DE1F41" mask="url(#path-67-inside-25_11_17)"/>
<path d="M29 69C29 63.4772 33.4772 59 39 59V69H29Z" fill="#DE1F41"/>
<mask id="path-70-inside-26_11_17" fill="white">
<path d="M59 108C59 119.046 50.0457 128 39 128V108H59Z"/>
</mask>
<path d="M59 108C59 119.046 50.0457 128 39 128V108H59Z" fill="#F59307"/>
<path d="M60 108C60 119.598 50.598 129 39 129V127C49.4934 127 58 118.493 58 108H60ZM39 108H59H39ZM60 108C60 119.598 50.598 129 39 129V127C49.4934 127 58 118.493 58 108H60ZM39 128V108V128Z" fill="#405508" mask="url(#path-70-inside-26_11_17)"/>
<path d="M49 108C49 113.523 44.5228 118 39 118V108H49Z" fill="#405508"/>
<mask id="path-73-inside-27_11_17" fill="white">
<path d="M39 128C27.9543 128 19 119.046 19 108H39V128Z"/>
</mask>
<path d="M39 128C27.9543 128 19 119.046 19 108H39V128Z" fill="#F59307"/>
<path d="M39 129C27.402 129 18 119.598 18 108H20C20 118.493 28.5066 127 39 127V129ZM39 108V128V108ZM39 129C27.402 129 18 119.598 18 108H20C20 118.493 28.5066 127 39 127V129ZM19 108H39H19Z" fill="#405508" mask="url(#path-73-inside-27_11_17)"/>
<path d="M39 118C33.4772 118 29 113.523 29 108H39V118Z" fill="#405508"/>
<path d="M29 108C29 102.477 33.4772 98 39 98V98V108H29V108Z" fill="#405508"/>
<mask id="path-77-inside-28_11_17" fill="white">
<path d="M39 39C39 27.9543 47.9543 19 59 19V39H39Z"/>
</mask>
<path d="M39 39C39 27.9543 47.9543 19 59 19V39H39Z" fill="#405508"/>
<path d="M38 39C38 27.402 47.402 18 59 18V20C48.5066 20 40 28.5066 40 39H38ZM59 39H39H59ZM38 39C38 27.402 47.402 18 59 18V20C48.5066 20 40 28.5066 40 39H38ZM59 19V39V19Z" fill="#F59307" mask="url(#path-77-inside-28_11_17)"/>
<path d="M49 39C49 33.4772 53.4772 29 59 29V39H49Z" fill="#F59307"/>
<mask id="path-80-inside-29_11_17" fill="white">
<path d="M59 19C70.0457 19 79 27.9543 79 39H59V19Z"/>
</mask>
<path d="M59 19C70.0457 19 79 27.9543 79 39H59V19Z" fill="#405508"/>
<path d="M59 18C70.598 18 80 27.402 80 39H78C78 28.5066 69.4934 20 59 20V18ZM59 39V19V39ZM59 18C70.598 18 80 27.402 80 39H78C78 28.5066 69.4934 20 59 20V18ZM79 39H59H79Z" fill="#F59307" mask="url(#path-80-inside-29_11_17)"/>
<path d="M59 29C64.5228 29 69 33.4772 69 39H59V29Z" fill="#F59307"/>
<mask id="path-83-outside-30_11_17" maskUnits="userSpaceOnUse" x="8" y="35" width="113" height="60" fill="black">
<rect fill="white" x="8" y="35" width="113" height="60"/>
<path d="M29.818 57V36.6H33.118C34.698 38.66 36.198 40.84 37.618 43.14C39.038 45.42 40.328 47.77 41.488 50.19L41.218 44.1V36.6H44.668V57H41.368C40.088 54.48 38.758 51.95 37.378 49.41C36.018 46.85 34.568 44.44 33.028 42.18L33.268 49.2V57H29.818ZM62.1166 53.55V57H50.2966V36.6H61.8166V40.05H53.8966V44.94H60.9166V48.39H53.8966V53.55H62.1166ZM69.9805 49.5V57H66.3805V36.6H73.1905C75.2505 36.6 76.8305 37.13 77.9305 38.19C79.0505 39.23 79.6105 40.63 79.6105 42.39V43.68C79.6105 44.84 79.3605 45.86 78.8605 46.74C78.3605 47.62 77.6405 48.29 76.7005 48.75C78.3405 51.55 79.7405 54.3 80.9005 57H76.7905C75.7905 54.5 74.6005 52 73.2205 49.5H69.9805ZM73.1905 39.9H69.9805V46.2H73.1905C74.0705 46.2 74.7405 45.98 75.2005 45.54C75.6805 45.08 75.9205 44.46 75.9205 43.68V42.39C75.9205 41.63 75.6805 41.03 75.2005 40.59C74.7405 40.13 74.0705 39.9 73.1905 39.9ZM84.6618 57V36.6H91.5618C94.0018 36.6 95.8618 37.28 97.1418 38.64C98.4218 40 99.0618 42 99.0618 44.64V48.93C99.0618 51.59 98.4218 53.6 97.1418 54.96C95.8618 56.32 94.0018 57 91.5618 57H84.6618ZM91.4118 40.05H88.2618V53.55H91.4118C92.8318 53.55 93.8418 53.2 94.4418 52.5C95.0618 51.8 95.3718 50.61 95.3718 48.93V44.64C95.3718 42.98 95.0618 41.8 94.4418 41.1C93.8418 40.4 92.8318 40.05 91.4118 40.05ZM26.432 72.6L19.952 93H16.262L9.75203 72.6H13.712L16.802 82.86L18.212 88.14L19.712 82.83L22.772 72.6H26.432ZM39.1839 93L37.9239 89.01H30.9339L29.6739 93H26.1039L32.9139 72.6H36.0939L42.9339 93H39.1839ZM32.8839 82.77L31.9539 85.71H36.8739L35.9439 82.77L34.4439 77.61L32.8839 82.77ZM49.9415 85.5V93H46.3415V72.6H53.1515C55.2115 72.6 56.7915 73.13 57.8915 74.19C59.0115 75.23 59.5715 76.63 59.5715 78.39V79.68C59.5715 80.84 59.3215 81.86 58.8215 82.74C58.3215 83.62 57.6015 84.29 56.6615 84.75C58.3015 87.55 59.7015 90.3 60.8615 93H56.7515C55.7515 90.5 54.5615 88 53.1815 85.5H49.9415ZM53.1515 75.9H49.9415V82.2H53.1515C54.0315 82.2 54.7015 81.98 55.1615 81.54C55.6415 81.08 55.8815 80.46 55.8815 79.68V78.39C55.8815 77.63 55.6415 77.03 55.1615 76.59C54.7015 76.13 54.0315 75.9 53.1515 75.9ZM69.0627 89.97C71.3827 89.97 72.5427 89.11 72.5427 87.39C72.5427 86.69 72.3627 86.14 72.0027 85.74C71.6627 85.34 71.0227 84.99 70.0827 84.69L67.6227 83.88C64.6827 82.92 63.2127 80.99 63.2127 78.09C63.2127 76.41 63.7327 75.03 64.7727 73.95C65.8327 72.85 67.4827 72.3 69.7227 72.3C70.6627 72.3 71.5927 72.41 72.5127 72.63C73.4327 72.83 74.4127 73.16 75.4527 73.62L74.3427 76.71C73.3827 76.33 72.5627 76.06 71.8827 75.9C71.2227 75.72 70.5427 75.63 69.8427 75.63C68.9227 75.63 68.1927 75.8 67.6527 76.14C67.1327 76.46 66.8727 77.05 66.8727 77.91C66.8727 78.55 67.0527 79.08 67.4127 79.5C67.7927 79.9 68.4127 80.24 69.2727 80.52L71.7327 81.33C73.2127 81.83 74.3227 82.56 75.0627 83.52C75.8227 84.46 76.2027 85.71 76.2027 87.27C76.2027 89.07 75.6327 90.53 74.4927 91.65C73.3527 92.75 71.5627 93.3 69.1227 93.3C68.1627 93.3 67.1627 93.19 66.1227 92.97C65.1027 92.73 63.9827 92.33 62.7627 91.77L63.8727 88.68C64.9927 89.16 65.9427 89.5 66.7227 89.7C67.5227 89.88 68.3027 89.97 69.0627 89.97ZM83.7501 93H80.1501V72.6H83.7501V93ZM86.9486 76.05V72.6H101.949V76.05H96.2486V93H92.6486V76.05H86.9486ZM118.58 72.6L112.34 84.81V93H108.74V84.87L102.44 72.6H106.28L110.69 81.3L114.86 72.6H118.58Z"/>
</mask>
<path d="M29.818 57V36.6H33.118C34.698 38.66 36.198 40.84 37.618 43.14C39.038 45.42 40.328 47.77 41.488 50.19L41.218 44.1V36.6H44.668V57H41.368C40.088 54.48 38.758 51.95 37.378 49.41C36.018 46.85 34.568 44.44 33.028 42.18L33.268 49.2V57H29.818ZM62.1166 53.55V57H50.2966V36.6H61.8166V40.05H53.8966V44.94H60.9166V48.39H53.8966V53.55H62.1166ZM69.9805 49.5V57H66.3805V36.6H73.1905C75.2505 36.6 76.8305 37.13 77.9305 38.19C79.0505 39.23 79.6105 40.63 79.6105 42.39V43.68C79.6105 44.84 79.3605 45.86 78.8605 46.74C78.3605 47.62 77.6405 48.29 76.7005 48.75C78.3405 51.55 79.7405 54.3 80.9005 57H76.7905C75.7905 54.5 74.6005 52 73.2205 49.5H69.9805ZM73.1905 39.9H69.9805V46.2H73.1905C74.0705 46.2 74.7405 45.98 75.2005 45.54C75.6805 45.08 75.9205 44.46 75.9205 43.68V42.39C75.9205 41.63 75.6805 41.03 75.2005 40.59C74.7405 40.13 74.0705 39.9 73.1905 39.9ZM84.6618 57V36.6H91.5618C94.0018 36.6 95.8618 37.28 97.1418 38.64C98.4218 40 99.0618 42 99.0618 44.64V48.93C99.0618 51.59 98.4218 53.6 97.1418 54.96C95.8618 56.32 94.0018 57 91.5618 57H84.6618ZM91.4118 40.05H88.2618V53.55H91.4118C92.8318 53.55 93.8418 53.2 94.4418 52.5C95.0618 51.8 95.3718 50.61 95.3718 48.93V44.64C95.3718 42.98 95.0618 41.8 94.4418 41.1C93.8418 40.4 92.8318 40.05 91.4118 40.05ZM26.432 72.6L19.952 93H16.262L9.75203 72.6H13.712L16.802 82.86L18.212 88.14L19.712 82.83L22.772 72.6H26.432ZM39.1839 93L37.9239 89.01H30.9339L29.6739 93H26.1039L32.9139 72.6H36.0939L42.9339 93H39.1839ZM32.8839 82.77L31.9539 85.71H36.8739L35.9439 82.77L34.4439 77.61L32.8839 82.77ZM49.9415 85.5V93H46.3415V72.6H53.1515C55.2115 72.6 56.7915 73.13 57.8915 74.19C59.0115 75.23 59.5715 76.63 59.5715 78.39V79.68C59.5715 80.84 59.3215 81.86 58.8215 82.74C58.3215 83.62 57.6015 84.29 56.6615 84.75C58.3015 87.55 59.7015 90.3 60.8615 93H56.7515C55.7515 90.5 54.5615 88 53.1815 85.5H49.9415ZM53.1515 75.9H49.9415V82.2H53.1515C54.0315 82.2 54.7015 81.98 55.1615 81.54C55.6415 81.08 55.8815 80.46 55.8815 79.68V78.39C55.8815 77.63 55.6415 77.03 55.1615 76.59C54.7015 76.13 54.0315 75.9 53.1515 75.9ZM69.0627 89.97C71.3827 89.97 72.5427 89.11 72.5427 87.39C72.5427 86.69 72.3627 86.14 72.0027 85.74C71.6627 85.34 71.0227 84.99 70.0827 84.69L67.6227 83.88C64.6827 82.92 63.2127 80.99 63.2127 78.09C63.2127 76.41 63.7327 75.03 64.7727 73.95C65.8327 72.85 67.4827 72.3 69.7227 72.3C70.6627 72.3 71.5927 72.41 72.5127 72.63C73.4327 72.83 74.4127 73.16 75.4527 73.62L74.3427 76.71C73.3827 76.33 72.5627 76.06 71.8827 75.9C71.2227 75.72 70.5427 75.63 69.8427 75.63C68.9227 75.63 68.1927 75.8 67.6527 76.14C67.1327 76.46 66.8727 77.05 66.8727 77.91C66.8727 78.55 67.0527 79.08 67.4127 79.5C67.7927 79.9 68.4127 80.24 69.2727 80.52L71.7327 81.33C73.2127 81.83 74.3227 82.56 75.0627 83.52C75.8227 84.46 76.2027 85.71 76.2027 87.27C76.2027 89.07 75.6327 90.53 74.4927 91.65C73.3527 92.75 71.5627 93.3 69.1227 93.3C68.1627 93.3 67.1627 93.19 66.1227 92.97C65.1027 92.73 63.9827 92.33 62.7627 91.77L63.8727 88.68C64.9927 89.16 65.9427 89.5 66.7227 89.7C67.5227 89.88 68.3027 89.97 69.0627 89.97ZM83.7501 93H80.1501V72.6H83.7501V93ZM86.9486 76.05V72.6H101.949V76.05H96.2486V93H92.6486V76.05H86.9486ZM118.58 72.6L112.34 84.81V93H108.74V84.87L102.44 72.6H106.28L110.69 81.3L114.86 72.6H118.58Z" fill="white"/>
<path d="M29.818 57H28.818V58H29.818V57ZM29.818 36.6V35.6H28.818V36.6H29.818ZM33.118 36.6L33.9115 35.9914L33.6113 35.6H33.118V36.6ZM37.618 43.14L36.7671 43.6653L36.7692 43.6687L37.618 43.14ZM41.488 50.19L40.5863 50.6222L42.4871 50.1457L41.488 50.19ZM41.218 44.1H40.218V44.1222L40.219 44.1443L41.218 44.1ZM41.218 36.6V35.6H40.218V36.6H41.218ZM44.668 36.6H45.668V35.6H44.668V36.6ZM44.668 57V58H45.668V57H44.668ZM41.368 57L40.4765 57.4529L40.7544 58H41.368V57ZM37.378 49.41L36.4949 49.8792L36.4994 49.8874L37.378 49.41ZM33.028 42.18L33.8544 41.6169L31.9107 38.7644L32.0286 42.2142L33.028 42.18ZM33.268 49.2H34.268V49.1829L34.2675 49.1658L33.268 49.2ZM33.268 57V58H34.268V57H33.268ZM30.818 57V36.6H28.818V57H30.818ZM29.818 37.6H33.118V35.6H29.818V37.6ZM32.3246 37.2086C33.8832 39.2408 35.3641 41.3929 36.7672 43.6653L38.4689 42.6147C37.0319 40.2871 35.5129 38.0792 33.9115 35.9914L32.3246 37.2086ZM36.7692 43.6687C38.1698 45.9175 39.4422 48.2354 40.5863 50.6222L42.3898 49.7578C41.2139 47.3046 39.9063 44.9225 38.4669 42.6113L36.7692 43.6687ZM42.4871 50.1457L42.2171 44.0557L40.219 44.1443L40.489 50.2343L42.4871 50.1457ZM42.218 44.1V36.6H40.218V44.1H42.218ZM41.218 37.6H44.668V35.6H41.218V37.6ZM43.668 36.6V57H45.668V36.6H43.668ZM44.668 56H41.368V58H44.668V56ZM42.2596 56.5471C40.9753 54.0187 39.641 51.4805 38.2567 48.9326L36.4994 49.8874C37.875 52.4195 39.2007 54.9413 40.4765 57.4529L42.2596 56.5471ZM38.2612 48.9408C36.885 46.3504 35.4162 43.9089 33.8544 41.6169L32.2017 42.7431C33.7199 44.9711 35.1511 47.3496 36.4949 49.8792L38.2612 48.9408ZM32.0286 42.2142L32.2686 49.2342L34.2675 49.1658L34.0275 42.1458L32.0286 42.2142ZM32.268 49.2V57H34.268V49.2H32.268ZM33.268 56H29.818V58H33.268V56ZM62.1166 53.55H63.1166V52.55H62.1166V53.55ZM62.1166 57V58H63.1166V57H62.1166ZM50.2966 57H49.2966V58H50.2966V57ZM50.2966 36.6V35.6H49.2966V36.6H50.2966ZM61.8166 36.6H62.8166V35.6H61.8166V36.6ZM61.8166 40.05V41.05H62.8166V40.05H61.8166ZM53.8966 40.05V39.05H52.8966V40.05H53.8966ZM53.8966 44.94H52.8966V45.94H53.8966V44.94ZM60.9166 44.94H61.9166V43.94H60.9166V44.94ZM60.9166 48.39V49.39H61.9166V48.39H60.9166ZM53.8966 48.39V47.39H52.8966V48.39H53.8966ZM53.8966 53.55H52.8966V54.55H53.8966V53.55ZM61.1166 53.55V57H63.1166V53.55H61.1166ZM62.1166 56H50.2966V58H62.1166V56ZM51.2966 57V36.6H49.2966V57H51.2966ZM50.2966 37.6H61.8166V35.6H50.2966V37.6ZM60.8166 36.6V40.05H62.8166V36.6H60.8166ZM61.8166 39.05H53.8966V41.05H61.8166V39.05ZM52.8966 40.05V44.94H54.8966V40.05H52.8966ZM53.8966 45.94H60.9166V43.94H53.8966V45.94ZM59.9166 44.94V48.39H61.9166V44.94H59.9166ZM60.9166 47.39H53.8966V49.39H60.9166V47.39ZM52.8966 48.39V53.55H54.8966V48.39H52.8966ZM53.8966 54.55H62.1166V52.55H53.8966V54.55ZM69.9805 49.5V48.5H68.9805V49.5H69.9805ZM69.9805 57V58H70.9805V57H69.9805ZM66.3805 57H65.3805V58H66.3805V57ZM66.3805 36.6V35.6H65.3805V36.6H66.3805ZM77.9305 38.19L77.2367 38.9101L77.2433 38.9165L77.2501 38.9228L77.9305 38.19ZM78.8605 46.74L79.73 47.234L79.73 47.234L78.8605 46.74ZM76.7005 48.75L76.261 47.8518L75.293 48.3255L75.8377 49.2554L76.7005 48.75ZM80.9005 57V58H82.4186L81.8193 56.6053L80.9005 57ZM76.7905 57L75.8621 57.3714L76.1135 58H76.7905V57ZM73.2205 49.5L74.096 49.0167L73.8108 48.5H73.2205V49.5ZM69.9805 39.9V38.9H68.9805V39.9H69.9805ZM69.9805 46.2H68.9805V47.2H69.9805V46.2ZM75.2005 45.54L75.8918 46.2626L75.8925 46.262L75.2005 45.54ZM75.2005 40.59L74.4934 41.2971L74.5088 41.3125L74.5248 41.3272L75.2005 40.59ZM68.9805 49.5V57H70.9805V49.5H68.9805ZM69.9805 56H66.3805V58H69.9805V56ZM67.3805 57V36.6H65.3805V57H67.3805ZM66.3805 37.6H73.1905V35.6H66.3805V37.6ZM73.1905 37.6C75.084 37.6 76.3803 38.0849 77.2367 38.9101L78.6244 37.4699C77.2808 36.1751 75.4171 35.6 73.1905 35.6V37.6ZM77.2501 38.9228C78.1348 39.7443 78.6105 40.8618 78.6105 42.39H80.6105C80.6105 40.3982 79.9663 38.7157 78.611 37.4572L77.2501 38.9228ZM78.6105 42.39V43.68H80.6105V42.39H78.6105ZM78.6105 43.68C78.6105 44.6925 78.3937 45.5374 77.9911 46.246L79.73 47.234C80.3274 46.1826 80.6105 44.9875 80.6105 43.68H78.6105ZM77.9911 46.246C77.594 46.9449 77.0268 47.477 76.261 47.8518L77.1401 49.6482C78.2543 49.103 79.1271 48.2951 79.73 47.234L77.9911 46.246ZM75.8377 49.2554C77.4589 52.0233 78.8397 54.7364 79.9818 57.3947L81.8193 56.6053C80.6414 53.8636 79.2222 51.0767 77.5634 48.2446L75.8377 49.2554ZM80.9005 56H76.7905V58H80.9005V56ZM77.719 56.6286C76.7028 54.088 75.4948 51.5507 74.096 49.0167L72.3451 49.9833C73.7063 52.4493 74.8783 54.912 75.8621 57.3714L77.719 56.6286ZM73.2205 48.5H69.9805V50.5H73.2205V48.5ZM73.1905 38.9H69.9805V40.9H73.1905V38.9ZM68.9805 39.9V46.2H70.9805V39.9H68.9805ZM69.9805 47.2H73.1905V45.2H69.9805V47.2ZM73.1905 47.2C74.2283 47.2 75.1843 46.9394 75.8918 46.2626L74.5093 44.8174C74.2968 45.0206 73.9128 45.2 73.1905 45.2V47.2ZM75.8925 46.262C76.6034 45.5806 76.9205 44.6813 76.9205 43.68H74.9205C74.9205 44.2386 74.7577 44.5794 74.5086 44.818L75.8925 46.262ZM76.9205 43.68V42.39H74.9205V43.68H76.9205ZM76.9205 42.39C76.9205 41.401 76.5979 40.5143 75.8763 39.8528L74.5248 41.3272C74.7632 41.5457 74.9205 41.859 74.9205 42.39H76.9205ZM75.9077 39.8829C75.2016 39.1768 74.2396 38.9 73.1905 38.9V40.9C73.9015 40.9 74.2795 41.0832 74.4934 41.2971L75.9077 39.8829ZM84.6618 57H83.6618V58H84.6618V57ZM84.6618 36.6V35.6H83.6618V36.6H84.6618ZM97.1418 38.64L97.87 37.9546L97.87 37.9546L97.1418 38.64ZM97.1418 54.96L97.87 55.6454L97.87 55.6454L97.1418 54.96ZM88.2618 40.05V39.05H87.2618V40.05H88.2618ZM88.2618 53.55H87.2618V54.55H88.2618V53.55ZM94.4418 52.5L93.6932 51.837L93.6878 51.843L93.6825 51.8492L94.4418 52.5ZM94.4418 41.1L93.6825 41.7508L93.6878 41.757L93.6932 41.763L94.4418 41.1ZM85.6618 57V36.6H83.6618V57H85.6618ZM84.6618 37.6H91.5618V35.6H84.6618V37.6ZM91.5618 37.6C93.8148 37.6 95.3758 38.2228 96.4136 39.3254L97.87 37.9546C96.3478 36.3372 94.1887 35.6 91.5618 35.6V37.6ZM96.4136 39.3254C97.4581 40.4351 98.0618 42.1492 98.0618 44.64H100.062C100.062 41.8508 99.3855 39.5649 97.87 37.9546L96.4136 39.3254ZM98.0618 44.64V48.93H100.062V44.64H98.0618ZM98.0618 48.93C98.0618 51.4433 97.4569 53.1661 96.4136 54.2746L97.87 55.6454C99.3867 54.0339 100.062 51.7367 100.062 48.93H98.0618ZM96.4136 54.2746C95.3758 55.3772 93.8148 56 91.5618 56V58C94.1887 58 96.3478 57.2628 97.87 55.6454L96.4136 54.2746ZM91.5618 56H84.6618V58H91.5618V56ZM91.4118 39.05H88.2618V41.05H91.4118V39.05ZM87.2618 40.05V53.55H89.2618V40.05H87.2618ZM88.2618 54.55H91.4118V52.55H88.2618V54.55ZM91.4118 54.55C92.9657 54.55 94.328 54.1694 95.2011 53.1508L93.6825 51.8492C93.3556 52.2306 92.6979 52.55 91.4118 52.55V54.55ZM95.1904 53.163C96.0595 52.1818 96.3718 50.6794 96.3718 48.93H94.3718C94.3718 50.5406 94.0641 51.4182 93.6932 51.837L95.1904 53.163ZM96.3718 48.93V44.64H94.3718V48.93H96.3718ZM96.3718 44.64C96.3718 42.9068 96.0581 41.4166 95.1904 40.437L93.6932 41.763C94.0655 42.1834 94.3718 43.0532 94.3718 44.64H96.3718ZM95.2011 40.4492C94.328 39.4306 92.9657 39.05 91.4118 39.05V41.05C92.6979 41.05 93.3556 41.3694 93.6825 41.7508L95.2011 40.4492ZM26.432 72.6L27.3851 72.9027L27.7989 71.6H26.432V72.6ZM19.952 93V94H20.6836L20.9051 93.3027L19.952 93ZM16.262 93L15.3094 93.304L15.5315 94H16.262V93ZM9.75203 72.6V71.6H8.38323L8.79936 72.904L9.75203 72.6ZM13.712 72.6L14.6695 72.3116L14.4552 71.6H13.712V72.6ZM16.802 82.86L17.7682 82.602L17.7641 82.5867L17.7595 82.5716L16.802 82.86ZM18.212 88.14L17.2459 88.398L18.1849 91.9144L19.1744 88.4118L18.212 88.14ZM19.712 82.83L18.754 82.5434L18.7518 82.5508L18.7497 82.5582L19.712 82.83ZM22.772 72.6V71.6H22.0274L21.814 72.3134L22.772 72.6ZM25.479 72.2973L18.999 92.6973L20.9051 93.3027L27.3851 72.9027L25.479 72.2973ZM19.952 92H16.262V94H19.952V92ZM17.2147 92.696L10.7047 72.296L8.79936 72.904L15.3094 93.304L17.2147 92.696ZM9.75203 73.6H13.712V71.6H9.75203V73.6ZM12.7545 72.8884L15.8445 83.1484L17.7595 82.5716L14.6695 72.3116L12.7545 72.8884ZM15.8359 83.118L17.2459 88.398L19.1782 87.882L17.7682 82.602L15.8359 83.118ZM19.1744 88.4118L20.6744 83.1018L18.7497 82.5582L17.2497 87.8682L19.1744 88.4118ZM20.6701 83.1166L23.7301 72.8866L21.814 72.3134L18.754 82.5434L20.6701 83.1166ZM22.772 73.6H26.432V71.6H22.772V73.6ZM39.1839 93L38.2303 93.3011L38.451 94H39.1839V93ZM37.9239 89.01L38.8775 88.7089L38.6568 88.01H37.9239V89.01ZM30.9339 89.01V88.01H30.201L29.9803 88.7089L30.9339 89.01ZM29.6739 93V94H30.4068L30.6275 93.3011L29.6739 93ZM26.1039 93L25.1554 92.6834L24.7158 94H26.1039V93ZM32.9139 72.6V71.6H32.1935L31.9654 72.2834L32.9139 72.6ZM36.0939 72.6L37.042 72.2821L36.8133 71.6H36.0939V72.6ZM42.9339 93V94H44.3239L43.882 92.6821L42.9339 93ZM32.8839 82.77L33.8374 83.0716L33.8411 83.0594L32.8839 82.77ZM31.9539 85.71L31.0005 85.4084L30.5887 86.71H31.9539V85.71ZM36.8739 85.71V86.71H38.2391L37.8273 85.4084L36.8739 85.71ZM35.9439 82.77L34.9837 83.0491L34.9869 83.0604L34.9905 83.0716L35.9439 82.77ZM34.4439 77.61L35.4042 77.3309L34.4627 74.0923L33.4867 77.3206L34.4439 77.61ZM40.1375 92.6989L38.8775 88.7089L36.9703 89.3111L38.2303 93.3011L40.1375 92.6989ZM37.9239 88.01H30.9339V90.01H37.9239V88.01ZM29.9803 88.7089L28.7203 92.6989L30.6275 93.3011L31.8875 89.3111L29.9803 88.7089ZM29.6739 92H26.1039V94H29.6739V92ZM27.0525 93.3166L33.8625 72.9166L31.9654 72.2834L25.1554 92.6834L27.0525 93.3166ZM32.9139 73.6H36.0939V71.6H32.9139V73.6ZM35.1458 72.9179L41.9858 93.3179L43.882 92.6821L37.042 72.2821L35.1458 72.9179ZM42.9339 92H39.1839V94H42.9339V92ZM31.9305 82.4684L31.0005 85.4084L32.9073 86.0116L33.8373 83.0716L31.9305 82.4684ZM31.9539 86.71H36.8739V84.71H31.9539V86.71ZM37.8273 85.4084L36.8973 82.4684L34.9905 83.0716L35.9205 86.0116L37.8273 85.4084ZM36.9042 82.4909L35.4042 77.3309L33.4837 77.8891L34.9837 83.0491L36.9042 82.4909ZM33.4867 77.3206L31.9267 82.4806L33.8411 83.0594L35.4011 77.8994L33.4867 77.3206ZM49.9415 85.5V84.5H48.9415V85.5H49.9415ZM49.9415 93V94H50.9415V93H49.9415ZM46.3415 93H45.3415V94H46.3415V93ZM46.3415 72.6V71.6H45.3415V72.6H46.3415ZM57.8915 74.19L57.1976 74.9101L57.2043 74.9165L57.211 74.9228L57.8915 74.19ZM58.8215 82.74L59.6909 83.234L59.6909 83.234L58.8215 82.74ZM56.6615 84.75L56.2219 83.8518L55.2539 84.3255L55.7986 85.2554L56.6615 84.75ZM60.8615 93V94H62.3795L61.7803 92.6053L60.8615 93ZM56.7515 93L55.823 93.3714L56.0745 94H56.7515V93ZM53.1815 85.5L54.057 85.0167L53.7717 84.5H53.1815V85.5ZM49.9415 75.9V74.9H48.9415V75.9H49.9415ZM49.9415 82.2H48.9415V83.2H49.9415V82.2ZM55.1615 81.54L55.8527 82.2626L55.8534 82.262L55.1615 81.54ZM55.1615 76.59L54.4544 77.2971L54.4697 77.3125L54.4858 77.3272L55.1615 76.59ZM48.9415 85.5V93H50.9415V85.5H48.9415ZM49.9415 92H46.3415V94H49.9415V92ZM47.3415 93V72.6H45.3415V93H47.3415ZM46.3415 73.6H53.1515V71.6H46.3415V73.6ZM53.1515 73.6C55.045 73.6 56.3412 74.0849 57.1976 74.9101L58.5854 73.4699C57.2417 72.1751 55.378 71.6 53.1515 71.6V73.6ZM57.211 74.9228C58.0957 75.7443 58.5715 76.8618 58.5715 78.39H60.5715C60.5715 76.3982 59.9273 74.7157 58.5719 73.4572L57.211 74.9228ZM58.5715 78.39V79.68H60.5715V78.39H58.5715ZM58.5715 79.68C58.5715 80.6925 58.3546 81.5374 57.952 82.246L59.6909 83.234C60.2883 82.1826 60.5715 80.9875 60.5715 79.68H58.5715ZM57.952 82.246C57.5549 82.9449 56.9878 83.477 56.2219 83.8518L57.101 85.6482C58.2152 85.103 59.088 84.2951 59.6909 83.234L57.952 82.246ZM55.7986 85.2554C57.4198 88.0233 58.8006 90.7364 59.9427 93.3947L61.7803 92.6053C60.6024 89.8636 59.1831 87.0767 57.5244 84.2446L55.7986 85.2554ZM60.8615 92H56.7515V94H60.8615V92ZM57.68 92.6286C56.6637 90.088 55.4557 87.5507 54.057 85.0167L52.306 85.9833C53.6672 88.4493 54.8392 90.912 55.823 93.3714L57.68 92.6286ZM53.1815 84.5H49.9415V86.5H53.1815V84.5ZM53.1515 74.9H49.9415V76.9H53.1515V74.9ZM48.9415 75.9V82.2H50.9415V75.9H48.9415ZM49.9415 83.2H53.1515V81.2H49.9415V83.2ZM53.1515 83.2C54.1893 83.2 55.1452 82.9394 55.8527 82.2626L54.4703 80.8174C54.2577 81.0206 53.8737 81.2 53.1515 81.2V83.2ZM55.8534 82.262C56.5644 81.5806 56.8815 80.6813 56.8815 79.68H54.8815C54.8815 80.2386 54.7186 80.5794 54.4696 80.818L55.8534 82.262ZM56.8815 79.68V78.39H54.8815V79.68H56.8815ZM56.8815 78.39C56.8815 77.401 56.5588 76.5143 55.8372 75.8528L54.4858 77.3272C54.7241 77.5457 54.8815 77.859 54.8815 78.39H56.8815ZM55.8686 75.8829C55.1625 75.1768 54.2006 74.9 53.1515 74.9V76.9C53.8624 76.9 54.2404 77.0832 54.4544 77.2971L55.8686 75.8829ZM72.0027 85.74L71.2408 86.3876L71.25 86.3984L71.2594 86.409L72.0027 85.74ZM70.0827 84.69L69.77 85.6399L69.7787 85.6427L70.0827 84.69ZM67.6227 83.88L67.9355 82.9302L67.9331 82.9294L67.6227 83.88ZM64.7727 73.95L64.0527 73.2561L64.0524 73.2564L64.7727 73.95ZM72.5127 72.63L72.2802 73.6026L72.2902 73.605L72.3003 73.6072L72.5127 72.63ZM75.4527 73.62L76.3939 73.9581L76.7086 73.082L75.8572 72.7055L75.4527 73.62ZM74.3427 76.71L73.9747 77.6398L74.9348 78.0198L75.2839 77.0481L74.3427 76.71ZM71.8827 75.9L71.6196 76.8648L71.6366 76.8694L71.6537 76.8734L71.8827 75.9ZM67.6527 76.14L68.1769 76.9917L68.1855 76.9862L67.6527 76.14ZM67.4127 79.5L66.6535 80.1508L66.6701 80.1702L66.6877 80.1887L67.4127 79.5ZM69.2727 80.52L69.5855 79.5702L69.5823 79.5691L69.2727 80.52ZM71.7327 81.33L72.0528 80.3826L72.0455 80.3802L71.7327 81.33ZM75.0627 83.52L74.2707 84.1305L74.2778 84.1397L74.2851 84.1487L75.0627 83.52ZM74.4927 91.65L75.1871 92.3696L75.1936 92.3633L74.4927 91.65ZM66.1227 92.97L65.8937 93.9434L65.9047 93.946L65.9158 93.9483L66.1227 92.97ZM62.7627 91.77L61.8216 91.4319L61.5113 92.2959L62.3456 92.6788L62.7627 91.77ZM63.8727 88.68L64.2667 87.7609L63.2906 87.3426L62.9316 88.3419L63.8727 88.68ZM66.7227 89.7L66.4744 90.6687L66.4887 90.6724L66.5032 90.6756L66.7227 89.7ZM69.0627 90.97C70.3171 90.97 71.4396 90.7427 72.2683 90.1283C73.153 89.4724 73.5427 88.4984 73.5427 87.39H71.5427C71.5427 88.0016 71.3524 88.3176 71.0772 88.5217C70.7459 88.7673 70.1284 88.97 69.0627 88.97V90.97ZM73.5427 87.39C73.5427 86.5192 73.316 85.7044 72.746 85.071L71.2594 86.409C71.4094 86.5756 71.5427 86.8608 71.5427 87.39H73.5427ZM72.7647 85.0924C72.2373 84.4719 71.3724 84.0519 70.3868 83.7373L69.7787 85.6427C70.6731 85.9281 71.0882 86.2081 71.2408 86.3876L72.7647 85.0924ZM70.3955 83.7402L67.9355 82.9302L67.31 84.8298L69.77 85.6398L70.3955 83.7402ZM67.9331 82.9294C66.6031 82.4951 65.6929 81.8708 65.1108 81.1066C64.5329 80.3478 64.2127 79.3652 64.2127 78.09H62.2127C62.2127 79.7148 62.6276 81.1472 63.5197 82.3184C64.4076 83.4842 65.7024 84.3049 67.3123 84.8306L67.9331 82.9294ZM64.2127 78.09C64.2127 76.6348 64.6547 75.5143 65.4931 74.6436L64.0524 73.2564C62.8108 74.5457 62.2127 76.1852 62.2127 78.09H64.2127ZM65.4928 74.6439C66.2914 73.8152 67.6273 73.3 69.7227 73.3V71.3C67.3381 71.3 65.3741 71.8848 64.0527 73.2561L65.4928 74.6439ZM69.7227 73.3C70.5839 73.3 71.4359 73.4007 72.2802 73.6026L72.7453 71.6574C71.7496 71.4193 70.7416 71.3 69.7227 71.3V73.3ZM72.3003 73.6072C73.1424 73.7902 74.0577 74.0964 75.0482 74.5345L75.8572 72.7055C74.7678 72.2236 73.7231 71.8698 72.7252 71.6528L72.3003 73.6072ZM74.5116 73.2819L73.4016 76.3719L75.2839 77.0481L76.3939 73.9581L74.5116 73.2819ZM74.7108 75.7802C73.7248 75.3899 72.8557 75.1016 72.1118 74.9266L71.6537 76.8734C72.2698 77.0184 73.0407 77.2701 73.9747 77.6398L74.7108 75.7802ZM72.1459 74.9352C71.3981 74.7313 70.6295 74.63 69.8427 74.63V76.63C70.4559 76.63 71.0474 76.7087 71.6196 76.8648L72.1459 74.9352ZM69.8427 74.63C68.8131 74.63 67.8752 74.8182 67.1199 75.2938L68.1855 76.9862C68.5103 76.7818 69.0324 76.63 69.8427 76.63V74.63ZM67.1286 75.2883C66.2005 75.8595 65.8727 76.859 65.8727 77.91H67.8727C67.8727 77.2409 68.0649 77.0605 68.1768 76.9917L67.1286 75.2883ZM65.8727 77.91C65.8727 78.7491 66.1141 79.5216 66.6535 80.1508L68.172 78.8492C67.9913 78.6384 67.8727 78.3509 67.8727 77.91H65.8727ZM66.6877 80.1887C67.2333 80.763 68.0348 81.1686 68.9631 81.4709L69.5823 79.5691C68.7906 79.3114 68.3522 79.037 68.1377 78.8113L66.6877 80.1887ZM68.96 81.4698L71.42 82.2798L72.0455 80.3802L69.5855 79.5702L68.96 81.4698ZM71.4127 82.2774C72.7591 82.7323 73.6818 83.3664 74.2707 84.1305L75.8547 82.9095C74.9637 81.7536 73.6663 80.9277 72.0528 80.3826L71.4127 82.2774ZM74.2851 84.1487C74.8639 84.8646 75.2027 85.8714 75.2027 87.27H77.2027C77.2027 85.5486 76.7816 84.0554 75.8404 82.8913L74.2851 84.1487ZM75.2027 87.27C75.2027 88.8388 74.7156 90.0292 73.7919 90.9367L75.1936 92.3633C76.5499 91.0308 77.2027 89.3012 77.2027 87.27H75.2027ZM73.7984 90.9304C72.9239 91.7742 71.4398 92.3 69.1227 92.3V94.3C71.6857 94.3 73.7816 93.7258 75.1871 92.3696L73.7984 90.9304ZM69.1227 92.3C68.2392 92.3 67.3088 92.1988 66.3297 91.9917L65.9158 93.9483C67.0167 94.1812 68.0862 94.3 69.1227 94.3V92.3ZM66.3518 91.9966C65.4115 91.7754 64.3554 91.4008 63.1799 90.8612L62.3456 92.6788C63.6101 93.2592 64.7939 93.6846 65.8937 93.9434L66.3518 91.9966ZM63.7039 92.1081L64.8139 89.0181L62.9316 88.3419L61.8216 91.4319L63.7039 92.1081ZM63.4788 89.5991C64.6247 90.0902 65.6263 90.4512 66.4744 90.6687L66.9711 88.7313C66.2591 88.5488 65.3608 88.2298 64.2667 87.7609L63.4788 89.5991ZM66.5032 90.6756C67.3696 90.8706 68.2233 90.97 69.0627 90.97V88.97C68.3821 88.97 67.6758 88.8894 66.9422 88.7244L66.5032 90.6756ZM83.7501 93V94H84.7501V93H83.7501ZM80.1501 93H79.1501V94H80.1501V93ZM80.1501 72.6V71.6H79.1501V72.6H80.1501ZM83.7501 72.6H84.7501V71.6H83.7501V72.6ZM83.7501 92H80.1501V94H83.7501V92ZM81.1501 93V72.6H79.1501V93H81.1501ZM80.1501 73.6H83.7501V71.6H80.1501V73.6ZM82.7501 72.6V93H84.7501V72.6H82.7501ZM86.9486 76.05H85.9486V77.05H86.9486V76.05ZM86.9486 72.6V71.6H85.9486V72.6H86.9486ZM101.949 72.6H102.949V71.6H101.949V72.6ZM101.949 76.05V77.05H102.949V76.05H101.949ZM96.2486 76.05V75.05H95.2486V76.05H96.2486ZM96.2486 93V94H97.2486V93H96.2486ZM92.6486 93H91.6486V94H92.6486V93ZM92.6486 76.05H93.6486V75.05H92.6486V76.05ZM87.9486 76.05V72.6H85.9486V76.05H87.9486ZM86.9486 73.6H101.949V71.6H86.9486V73.6ZM100.949 72.6V76.05H102.949V72.6H100.949ZM101.949 75.05H96.2486V77.05H101.949V75.05ZM95.2486 76.05V93H97.2486V76.05H95.2486ZM96.2486 92H92.6486V94H96.2486V92ZM93.6486 93V76.05H91.6486V93H93.6486ZM92.6486 75.05H86.9486V77.05H92.6486V75.05ZM118.58 72.6L119.47 73.0551L120.214 71.6H118.58V72.6ZM112.34 84.81L111.449 84.3549L111.34 84.5693V84.81H112.34ZM112.34 93V94H113.34V93H112.34ZM108.74 93H107.74V94H108.74V93ZM108.74 84.87H109.74V84.6283L109.629 84.4132L108.74 84.87ZM102.44 72.6V71.6H100.802L101.55 73.0568L102.44 72.6ZM106.28 72.6L107.172 72.1479L106.894 71.6H106.28V72.6ZM110.69 81.3L109.798 81.7521L110.715 83.5613L111.591 81.7322L110.69 81.3ZM114.86 72.6V71.6H114.23L113.958 72.1678L114.86 72.6ZM117.689 72.1449L111.449 84.3549L113.23 85.2651L119.47 73.0551L117.689 72.1449ZM111.34 84.81V93H113.34V84.81H111.34ZM112.34 92H108.74V94H112.34V92ZM109.74 93V84.87H107.74V93H109.74ZM109.629 84.4132L103.329 72.1432L101.55 73.0568L107.85 85.3268L109.629 84.4132ZM102.44 73.6H106.28V71.6H102.44V73.6ZM105.388 73.0521L109.798 81.7521L111.582 80.8479L107.172 72.1479L105.388 73.0521ZM111.591 81.7322L115.761 73.0322L113.958 72.1678L109.788 80.8678L111.591 81.7322ZM114.86 73.6H118.58V71.6H114.86V73.6Z" fill="black" mask="url(#path-83-outside-30_11_17)"/>
</svg>
