<svg width="128" height="128" viewBox="0 0 128 128" fill="none" xmlns="http://www.w3.org/2000/svg">
<mask id="path-1-inside-1_11_15" fill="white">
<path d="M19 108C19 96.9543 27.9543 88 39 88V108H19Z"/>
</mask>
<path d="M19 108C19 96.9543 27.9543 88 39 88V108H19Z" fill="#F59307"/>
<path d="M18 108C18 96.402 27.402 87 39 87V89C28.5066 89 20 97.5066 20 108H18ZM39 108H19H39ZM18 108C18 96.402 27.402 87 39 87V89C28.5066 89 20 97.5066 20 108H18ZM39 88V108V88Z" fill="#405508" mask="url(#path-1-inside-1_11_15)"/>
<mask id="path-3-inside-2_11_15" fill="white">
<path d="M109 20C109 31.0457 100.046 40 89 40V20H109Z"/>
</mask>
<path d="M109 20C109 31.0457 100.046 40 89 40V20H109Z" fill="#56FD06"/>
<path d="M110 20C110 31.598 100.598 41 89 41V39C99.4934 39 108 30.4934 108 20H110ZM89 20H109H89ZM110 20C110 31.598 100.598 41 89 41V39C99.4934 39 108 30.4934 108 20H110ZM89 40V20V40Z" fill="#01A0E2" mask="url(#path-3-inside-2_11_15)"/>
<mask id="path-5-inside-3_11_15" fill="white">
<path d="M108 109C96.9543 109 88 100.046 88 89H108V109Z"/>
</mask>
<path d="M108 109C96.9543 109 88 100.046 88 89H108V109Z" fill="#DE1F41"/>
<path d="M108 110C96.402 110 87 100.598 87 89H89C89 99.4934 97.5066 108 108 108V110ZM108 89V109V89ZM108 110C96.402 110 87 100.598 87 89H89C89 99.4934 97.5066 108 108 108V110ZM88 89H108H88Z" fill="#A0A0A0" mask="url(#path-5-inside-3_11_15)"/>
<mask id="path-7-inside-4_11_15" fill="white">
<path d="M20 19C31.0457 19 40 27.9543 40 39H20V19Z"/>
</mask>
<path d="M20 19C31.0457 19 40 27.9543 40 39H20V19Z" fill="#0265CD"/>
<path d="M20 18C31.598 18 41 27.402 41 39H39C39 28.5066 30.4934 20 20 20V18ZM20 39V19V39ZM20 18C31.598 18 41 27.402 41 39H39C39 28.5066 30.4934 20 20 20V18ZM40 39H20H40Z" fill="#F70089" mask="url(#path-7-inside-4_11_15)"/>
<rect x="39" y="69" width="10" height="39" fill="#405508"/>
<mask id="path-10-inside-5_11_15" fill="white">
<path d="M49 69H59V108H49V69Z"/>
</mask>
<path d="M49 69H59V108H49V69Z" fill="#F59307"/>
<path d="M58 69V108H60V69H58Z" fill="#405508" mask="url(#path-10-inside-5_11_15)"/>
<mask id="path-12-inside-6_11_15" fill="white">
<path d="M39 89V79H89V89H39Z"/>
</mask>
<path d="M39 89V79H89V89H39Z" fill="#A0A0A0"/>
<path d="M89 88H39V90H89V88Z" fill="#DE1F41" mask="url(#path-12-inside-6_11_15)"/>
<mask id="path-14-inside-7_11_15" fill="white">
<path d="M39 79V69H108V79H39Z"/>
</mask>
<path d="M39 79V69H108V79H39Z" fill="#DE1F41"/>
<path d="M39 70H108V68H39V70Z" fill="#A0A0A0" mask="url(#path-14-inside-7_11_15)"/>
<mask id="path-16-inside-8_11_15" fill="white">
<path d="M89 89H79V39H89V89Z"/>
</mask>
<path d="M89 89H79V39H89V89Z" fill="#01A0E2"/>
<path d="M88 39V89H90V39H88Z" fill="#56FD06" mask="url(#path-16-inside-8_11_15)"/>
<mask id="path-18-inside-9_11_15" fill="white">
<path d="M79 89H69V20H79V89Z"/>
</mask>
<path d="M79 89H69V20H79V89Z" fill="#56FD06"/>
<path d="M70 89V20H68V89H70Z" fill="#01A0E2" mask="url(#path-18-inside-9_11_15)"/>
<mask id="path-20-inside-10_11_15" fill="white">
<path d="M89 39V49H39V39H89Z"/>
</mask>
<path d="M89 39V49H39V39H89Z" fill="#F70089"/>
<path d="M39 40H89V38H39V40Z" fill="#0265CD" mask="url(#path-20-inside-10_11_15)"/>
<mask id="path-22-inside-11_11_15" fill="white">
<path d="M89 49V59H20V49L89 49Z"/>
</mask>
<path d="M89 49V59H20V49L89 49Z" fill="#0265CD"/>
<path d="M89 58H20V60H89V58Z" fill="#F70089" mask="url(#path-22-inside-11_11_15)"/>
<mask id="path-24-inside-12_11_15" fill="white">
<path d="M39 39H49V69H39V39Z"/>
</mask>
<path d="M39 39H49V69H39V39Z" fill="#405508"/>
<path d="M40 69V39H38V69H40Z" fill="#F59307" mask="url(#path-24-inside-12_11_15)"/>
<mask id="path-26-inside-13_11_15" fill="white">
<path d="M49 39H59V69H49V39Z"/>
</mask>
<path d="M49 39H59V69H49V39Z" fill="#F59307"/>
<path d="M58 39V69H60V39H58Z" fill="#405508" mask="url(#path-26-inside-13_11_15)"/>
<mask id="path-28-inside-14_11_15" fill="white">
<path d="M20 59C8.95431 59 0 50.0457 0 39H20V59Z"/>
</mask>
<path d="M20 59C8.95431 59 0 50.0457 0 39H20V59Z" fill="#0265CD"/>
<path d="M20 60C8.40202 60 -1 50.598 -1 39H1C1 49.4934 9.50659 58 20 58V60ZM20 39V59V39ZM20 60C8.40202 60 -1 50.598 -1 39H1C1 49.4934 9.50659 58 20 58V60ZM0 39H20H0Z" fill="#F70089" mask="url(#path-28-inside-14_11_15)"/>
<path d="M20 49C14.4772 49 10 44.5228 10 39H20V49Z" fill="#F70089"/>
<path d="M20 49V39H39V49H20Z" fill="#F70089"/>
<mask id="path-32-inside-15_11_15" fill="white">
<path d="M0 39C0 27.9543 8.95431 19 20 19V39H0Z"/>
</mask>
<path d="M0 39C0 27.9543 8.95431 19 20 19V39H0Z" fill="#0265CD"/>
<path d="M-1 39C-1 27.402 8.40202 18 20 18V20C9.50659 20 1 28.5066 1 39H-1ZM20 39H0H20ZM-1 39C-1 27.402 8.40202 18 20 18V20C9.50659 20 1 28.5066 1 39H-1ZM20 19V39V19Z" fill="#F70089" mask="url(#path-32-inside-15_11_15)"/>
<path d="M10 39C10 33.4772 14.4772 29 20 29V39H10Z" fill="#F70089"/>
<path d="M20 29C25.5228 29 30 33.4772 30 39H20V29Z" fill="#F70089"/>
<mask id="path-36-inside-16_11_15" fill="white">
<path d="M89 39C100.046 39 109 47.9543 109 59H89V39Z"/>
</mask>
<path d="M89 39C100.046 39 109 47.9543 109 59H89V39Z" fill="#F70089"/>
<path d="M89 38C100.598 38 110 47.402 110 59H108C108 48.5066 99.4934 40 89 40V38ZM89 59V39V59ZM89 38C100.598 38 110 47.402 110 59H108C108 48.5066 99.4934 40 89 40V38ZM109 59H89H109Z" fill="#0265CD" mask="url(#path-36-inside-16_11_15)"/>
<path d="M89 49C94.5228 49 99 53.4772 99 59H89V49Z" fill="#0265CD"/>
<mask id="path-39-inside-17_11_15" fill="white">
<path d="M109 59C109 70.0457 100.046 79 89 79V59H109Z"/>
</mask>
<path d="M109 59C109 70.0457 100.046 79 89 79V59H109Z" fill="#F70089"/>
<path d="M110 59C110 70.598 100.598 80 89 80V78C99.4934 78 108 69.4934 108 59H110ZM89 59H109H89ZM110 59C110 70.598 100.598 80 89 80V78C99.4934 78 108 69.4934 108 59H110ZM89 79V59V79Z" fill="#0265CD" mask="url(#path-39-inside-17_11_15)"/>
<path d="M99 59C99 64.5228 94.5228 69 89 69V59H99Z" fill="#0265CD"/>
<mask id="path-42-inside-18_11_15" fill="white">
<path d="M69 20C69 8.95431 77.9543 0 89 0V20H69Z"/>
</mask>
<path d="M69 20C69 8.95431 77.9543 0 89 0V20H69Z" fill="#56FD06"/>
<path d="M68 20C68 8.40202 77.402 -1 89 -1V1C78.5066 1 70 9.50659 70 20H68ZM89 20H69H89ZM68 20C68 8.40202 77.402 -1 89 -1V1C78.5066 1 70 9.50659 70 20H68ZM89 0V20V0Z" fill="#01A0E2" mask="url(#path-42-inside-18_11_15)"/>
<path d="M79 20C79 14.4772 83.4772 10 89 10V20H79Z" fill="#01A0E2"/>
<path d="M79 20H89V39H79V20Z" fill="#01A0E2"/>
<mask id="path-46-inside-19_11_15" fill="white">
<path d="M89 0C100.046 0 109 8.95431 109 20H89V0Z"/>
</mask>
<path d="M89 0C100.046 0 109 8.95431 109 20H89V0Z" fill="#56FD06"/>
<path d="M89 -1C100.598 -1 110 8.40202 110 20H108C108 9.50659 99.4934 1 89 1V-1ZM89 20V0V20ZM89 -1C100.598 -1 110 8.40202 110 20H108C108 9.50659 99.4934 1 89 1V-1ZM109 20H89H109Z" fill="#01A0E2" mask="url(#path-46-inside-19_11_15)"/>
<path d="M89 10C94.5228 10 99 14.4772 99 20H89V10Z" fill="#01A0E2"/>
<path d="M99 20C99 25.5228 94.5228 30 89 30V20H99Z" fill="#01A0E2"/>
<mask id="path-50-inside-20_11_15" fill="white">
<path d="M89 89C89 100.046 80.0457 109 69 109V89H89Z"/>
</mask>
<path d="M89 89C89 100.046 80.0457 109 69 109V89H89Z" fill="#01A0E2"/>
<path d="M90 89C90 100.598 80.598 110 69 110V108C79.4934 108 88 99.4934 88 89H90ZM69 89H89H69ZM90 89C90 100.598 80.598 110 69 110V108C79.4934 108 88 99.4934 88 89H90ZM69 109V89V109Z" fill="#56FD06" mask="url(#path-50-inside-20_11_15)"/>
<path d="M79 89C79 94.5228 74.5228 99 69 99V89H79Z" fill="#56FD06"/>
<mask id="path-53-inside-21_11_15" fill="white">
<path d="M69 109C57.9543 109 49 100.046 49 89H69V109Z"/>
</mask>
<path d="M69 109C57.9543 109 49 100.046 49 89H69V109Z" fill="#01A0E2"/>
<path d="M69 110C57.402 110 48 100.598 48 89H50C50 99.4934 58.5066 108 69 108V110ZM69 89V109V89ZM69 110C57.402 110 48 100.598 48 89H50C50 99.4934 58.5066 108 69 108V110ZM49 89H69H49Z" fill="#56FD06" mask="url(#path-53-inside-21_11_15)"/>
<path d="M69 99C63.4772 99 59 94.5228 59 89H69V99Z" fill="#56FD06"/>
<mask id="path-56-inside-22_11_15" fill="white">
<path d="M108 69C119.046 69 128 77.9543 128 89H108V69Z"/>
</mask>
<path d="M108 69C119.046 69 128 77.9543 128 89H108V69Z" fill="#DE1F41"/>
<path d="M108 68C119.598 68 129 77.402 129 89H127C127 78.5066 118.493 70 108 70V68ZM108 89V69V89ZM108 68C119.598 68 129 77.402 129 89H127C127 78.5066 118.493 70 108 70V68ZM128 89H108H128Z" fill="#A0A0A0" mask="url(#path-56-inside-22_11_15)"/>
<path d="M108 79C113.523 79 118 83.4772 118 89H108V79Z" fill="#A0A0A0"/>
<path d="M108 79V89H89V79H108Z" fill="#A0A0A0"/>
<mask id="path-60-inside-23_11_15" fill="white">
<path d="M128 89C128 100.046 119.046 109 108 109V89H128Z"/>
</mask>
<path d="M128 89C128 100.046 119.046 109 108 109V89H128Z" fill="#DE1F41"/>
<path d="M129 89C129 100.598 119.598 110 108 110V108C118.493 108 127 99.4934 127 89H129ZM108 89H128H108ZM129 89C129 100.598 119.598 110 108 110V108C118.493 108 127 99.4934 127 89H129ZM108 109V89V109Z" fill="#A0A0A0" mask="url(#path-60-inside-23_11_15)"/>
<path d="M118 89C118 94.5228 113.523 99 108 99V89H118Z" fill="#A0A0A0"/>
<path d="M108 99C102.477 99 98 94.5228 98 89H108V99Z" fill="#A0A0A0"/>
<mask id="path-64-inside-24_11_15" fill="white">
<path d="M39 89C27.9543 89 19 80.0457 19 69H39V89Z"/>
</mask>
<path d="M39 89C27.9543 89 19 80.0457 19 69H39V89Z" fill="#A0A0A0"/>
<path d="M39 90C27.402 90 18 80.598 18 69H20C20 79.4934 28.5066 88 39 88V90ZM39 69V89V69ZM39 90C27.402 90 18 80.598 18 69H20C20 79.4934 28.5066 88 39 88V90ZM19 69H39H19Z" fill="#DE1F41" mask="url(#path-64-inside-24_11_15)"/>
<path d="M39 79C33.4772 79 29 74.5228 29 69H39V79Z" fill="#DE1F41"/>
<mask id="path-67-inside-25_11_15" fill="white">
<path d="M19 69C19 57.9543 27.9543 49 39 49V69H19Z"/>
</mask>
<path d="M19 69C19 57.9543 27.9543 49 39 49V69H19Z" fill="#A0A0A0"/>
<path d="M18 69C18 57.402 27.402 48 39 48V50C28.5066 50 20 58.5066 20 69H18ZM39 69H19H39ZM18 69C18 57.402 27.402 48 39 48V50C28.5066 50 20 58.5066 20 69H18ZM39 49V69V49Z" fill="#DE1F41" mask="url(#path-67-inside-25_11_15)"/>
<path d="M29 69C29 63.4772 33.4772 59 39 59V69H29Z" fill="#DE1F41"/>
<mask id="path-70-inside-26_11_15" fill="white">
<path d="M59 108C59 119.046 50.0457 128 39 128V108H59Z"/>
</mask>
<path d="M59 108C59 119.046 50.0457 128 39 128V108H59Z" fill="#F59307"/>
<path d="M60 108C60 119.598 50.598 129 39 129V127C49.4934 127 58 118.493 58 108H60ZM39 108H59H39ZM60 108C60 119.598 50.598 129 39 129V127C49.4934 127 58 118.493 58 108H60ZM39 128V108V128Z" fill="#405508" mask="url(#path-70-inside-26_11_15)"/>
<path d="M49 108C49 113.523 44.5228 118 39 118V108H49Z" fill="#405508"/>
<mask id="path-73-inside-27_11_15" fill="white">
<path d="M39 128C27.9543 128 19 119.046 19 108H39V128Z"/>
</mask>
<path d="M39 128C27.9543 128 19 119.046 19 108H39V128Z" fill="#F59307"/>
<path d="M39 129C27.402 129 18 119.598 18 108H20C20 118.493 28.5066 127 39 127V129ZM39 108V128V108ZM39 129C27.402 129 18 119.598 18 108H20C20 118.493 28.5066 127 39 127V129ZM19 108H39H19Z" fill="#405508" mask="url(#path-73-inside-27_11_15)"/>
<path d="M39 118C33.4772 118 29 113.523 29 108H39V118Z" fill="#405508"/>
<path d="M29 108C29 102.477 33.4772 98 39 98V98V108H29V108Z" fill="#405508"/>
<mask id="path-77-inside-28_11_15" fill="white">
<path d="M39 39C39 27.9543 47.9543 19 59 19V39H39Z"/>
</mask>
<path d="M39 39C39 27.9543 47.9543 19 59 19V39H39Z" fill="#405508"/>
<path d="M38 39C38 27.402 47.402 18 59 18V20C48.5066 20 40 28.5066 40 39H38ZM59 39H39H59ZM38 39C38 27.402 47.402 18 59 18V20C48.5066 20 40 28.5066 40 39H38ZM59 19V39V19Z" fill="#F59307" mask="url(#path-77-inside-28_11_15)"/>
<path d="M49 39C49 33.4772 53.4772 29 59 29V39H49Z" fill="#F59307"/>
<mask id="path-80-inside-29_11_15" fill="white">
<path d="M59 19C70.0457 19 79 27.9543 79 39H59V19Z"/>
</mask>
<path d="M59 19C70.0457 19 79 27.9543 79 39H59V19Z" fill="#405508"/>
<path d="M59 18C70.598 18 80 27.402 80 39H78C78 28.5066 69.4934 20 59 20V18ZM59 39V19V39ZM59 18C70.598 18 80 27.402 80 39H78C78 28.5066 69.4934 20 59 20V18ZM79 39H59H79Z" fill="#F59307" mask="url(#path-80-inside-29_11_15)"/>
<path d="M59 29C64.5228 29 69 33.4772 69 39H59V29Z" fill="#F59307"/>
</svg>
